<svg width="190" height="190" fill="none" xmlns="http://www.w3.org/2000/svg"><path d="M190 95c0 52.467-42.533 95-95 95S0 147.467 0 95 42.533 0 95 0s95 42.533 95 95z" fill="#D0DBEF"/><path d="M145 95c0 27.614-22.386 50-50 50s-50-22.386-50-50 22.386-50 50-50 50 22.386 50 50z" fill="#fff"/><path d="M91.17 59.5c1.924-3.333 6.736-3.333 8.66 0l29.878 51.75c1.924 3.333-.481 7.5-4.33 7.5H65.622c-3.849 0-6.255-4.167-4.33-7.5L91.17 59.5z" fill="#002C77"/><path d="M100 108a4 4 0 1 1-8 0 4 4 0 0 1 8 0zM93.32 99.372c-.615-2.17-1.576-22.932-1.257-26.002.32-3.07 7.623-3.25 7.893 0 .27 3.25-.759 23.832-1.313 26.002-.555 2.171-4.71 2.171-5.324 0z" fill="#fff"/></svg>